<svg width="17" height="16" viewBox="0 0 17 16" fill="none" xmlns="http://www.w3.org/2000/svg">
<path d="M11.8331 4C13.3969 4 13.8454 4 14.384 4.41329C14.5227 4.51969 14.6468 4.64381 14.7532 4.78248C15.1665 5.32109 15.1665 6.10295 15.1665 7.66667V10.6667C15.1665 12.5523 15.1665 13.4951 14.5807 14.0809C13.9949 14.6667 13.0521 14.6667 11.1665 14.6667H5.83313C3.94751 14.6667 3.0047 14.6667 2.41892 14.0809C1.83313 13.4951 1.83313 12.5523 1.83313 10.6667V7.66667C1.83313 6.10295 1.83313 5.32109 2.24642 4.78248C2.35282 4.64381 2.47694 4.51969 2.61561 4.41329C3.15422 4 3.60274 4 5.16646 4" stroke="white" stroke-linecap="round"/>
<path d="M11.8335 4.66683L11.243 3.19045C10.9882 2.55347 10.7665 1.8309 10.1113 1.50653C9.7618 1.3335 9.34127 1.3335 8.5002 1.3335C7.65914 1.3335 7.2386 1.3335 6.8891 1.50653C6.23394 1.8309 6.01221 2.55347 5.75742 3.19045L5.16687 4.66683" stroke="white" stroke-linecap="round" stroke-linejoin="round"/>
<path d="M10.8335 9.33333C10.8335 10.622 9.78887 11.6667 8.5002 11.6667C7.21154 11.6667 6.16687 10.622 6.16687 9.33333C6.16687 8.04467 7.21154 7 8.5002 7C9.78887 7 10.8335 8.04467 10.8335 9.33333Z" stroke="white"/>
<path d="M8.5 4H8.50562" stroke="white" stroke-width="1.33333" stroke-linecap="round" stroke-linejoin="round"/>
</svg>
